<?xml version="1.0" standalone="no"?>
<!DOCTYPE svg PUBLIC "-//W3C//DTD SVG 20010904//EN"
 "http://www.w3.org/TR/2001/REC-SVG-20010904/DTD/svg10.dtd">
<svg version="1.0" xmlns="http://www.w3.org/2000/svg"
 width="384.000000pt" height="384.000000pt" viewBox="0 0 384.000000 384.000000"
 preserveAspectRatio="xMidYMid meet">
<metadata>
Created by potrace 1.14, written by Peter Selinger 2001-2017
</metadata>
<g transform="translate(0.000000,384.000000) scale(0.100000,-0.100000)"
fill="#000000" stroke="none">
<path d="M0 1920 l0 -1920 932 0 932 0 33 22 c34 23 51 58 38 78 -12 20 -76
-50 -69 -74 6 -17 2 -16 -25 7 -39 32 -92 38 -84 8 8 -30 -64 -41 -125 -20
l-31 10 67 65 c57 55 62 62 32 47 -55 -28 -153 -24 -216 9 -94 49 -151 139
-163 256 -8 82 0 248 18 337 24 123 106 375 175 539 l76 178 -30 45 c-17 24
-30 46 -30 49 0 3 -26 49 -57 102 -157 266 -347 643 -388 767 -7 22 -22 65
-34 95 -55 148 -88 355 -78 485 6 85 39 217 74 305 54 131 180 297 249 326 17
7 45 30 63 51 77 92 84 96 226 117 61 10 128 21 150 25 22 5 -350 9 -847 10
l-888 1 0 -1920z"/>
<path d="M2105 3821 c28 -10 57 -20 65 -23 83 -32 184 -62 231 -68 72 -10 102
-30 143 -94 61 -96 62 -98 5 -60 -71 48 -120 47 -185 -2 -76 -58 -107 -74
-144 -74 -48 0 -120 21 -210 59 -61 27 -83 32 -120 27 -180 -24 -393 -272
-430 -503 -21 -127 -10 -240 43 -448 34 -132 149 -361 349 -696 84 -141 170
-286 191 -324 45 -77 40 -79 107 30 137 220 180 293 246 420 219 421 306 761
260 1022 -15 89 -15 92 5 139 17 38 20 60 16 113 l-5 66 28 -55 c37 -74 70
-211 79 -325 13 -178 -33 -406 -125 -622 -40 -95 -173 -360 -193 -388 -7 -9
-53 -94 -143 -265 -16 -30 -33 -59 -37 -65 -4 -5 -32 -55 -61 -110 -29 -55
-58 -108 -64 -118 -8 -13 -7 -25 8 -50 10 -17 33 -60 52 -94 l33 -62 -34 6
c-26 4 -36 2 -41 -11 -12 -31 7 -66 76 -140 39 -42 70 -85 70 -96 0 -31 18
-24 25 11 l7 30 20 -36 c10 -21 17 -40 14 -43 -3 -2 -8 3 -12 12 -11 30 -24
16 -24 -26 0 -42 28 -128 42 -128 14 0 40 49 32 62 -5 9 -4 10 4 3 19 -18 17
-52 -3 -75 l-20 -23 24 6 c24 6 51 -7 51 -24 0 -5 -11 -9 -23 -9 -34 0 -37 -8
-19 -41 17 -29 32 -38 32 -19 0 17 19 11 30 -11 15 -27 7 -34 -19 -18 -11 7
-23 10 -26 7 -11 -10 19 -48 37 -48 25 0 32 -37 32 -165 1 -136 -23 -243 -66
-298 -17 -21 -26 -42 -22 -50 4 -6 4 -9 -1 -5 -4 4 -21 0 -36 -9 -23 -14 -26
-20 -16 -32 9 -11 5 -10 -14 2 -25 17 -26 17 -44 -17 -17 -32 -50 -56 -77 -56
-7 0 -6 6 3 17 27 34 42 68 45 100 2 31 -8 44 -20 25 -3 -5 -18 -7 -35 -4 -23
3 -33 -1 -46 -22 -9 -14 -15 -33 -13 -43 4 -23 43 -29 51 -9 4 10 1 13 -9 9
-7 -3 -14 -1 -14 4 0 13 22 33 37 33 23 0 14 -38 -14 -60 -23 -18 -37 -21 -74
-17 -35 4 -54 1 -77 -14 -18 -10 -32 -20 -32 -22 0 -2 403 -5 895 -6 l895 -2
0 1920 0 1921 -892 -1 c-859 -1 -891 -2 -843 -18z m380 -265 c22 -24 37 -54
48 -97 9 -35 15 -65 13 -66 -1 -1 -24 27 -51 63 -27 36 -65 77 -83 91 -26 19
-31 28 -21 34 28 18 62 9 94 -25z m-186 -2398 l33 -63 -33 30 c-71 62 -89 95
-51 95 11 0 29 -22 51 -62z m55 -1094 c3 -8 2 -12 -4 -9 -6 3 -10 10 -10 16 0
14 7 11 14 -7z"/>
<path d="M1741 3794 c-115 -25 -249 -102 -331 -189 -23 -26 -11 -18 38 22 40
33 110 80 157 103 140 72 202 61 420 -70 94 -57 183 -100 205 -99 8 0 -3 7
-25 16 -42 17 -245 133 -245 140 0 2 17 1 38 -4 48 -9 114 -6 149 8 27 11 26
12 -42 34 -38 12 -87 30 -107 39 -46 20 -166 20 -257 0z"/>
<path d="M1605 3546 c-108 -73 -242 -244 -230 -295 l6 -24 -31 26 c-94 80
-240 14 -240 -108 0 -45 20 -85 60 -119 26 -21 42 -26 86 -26 50 0 59 4 96 38
35 33 41 46 45 89 3 28 0 59 -6 71 -30 55 123 279 249 364 14 9 23 17 20 17
-3 1 -28 -14 -55 -33z m-305 -316 c12 -8 12 -10 -4 -16 -11 -4 -24 0 -34 10
-15 15 -15 16 3 16 11 0 27 -4 35 -10z m-100 -35 c-7 -8 -19 -15 -28 -15 -12
0 -10 6 9 26 24 26 41 16 19 -11z m74 -21 c9 -4 16 -18 16 -34 0 -22 -5 -29
-26 -33 -32 -6 -55 32 -34 58 14 17 21 18 44 9z m76 -41 c0 -20 -3 -24 -11
-16 -7 7 -9 19 -6 27 10 24 17 19 17 -11z m-156 -36 c15 -24 -3 -35 -20 -13
-8 11 -14 24 -14 29 0 13 22 3 34 -16z m106 -36 c0 -10 -42 -23 -49 -15 -7 6
20 24 37 24 6 0 12 -4 12 -9z"/>
<path d="M1306 3425 c-10 -8 -23 -16 -29 -18 -5 -1 -1 -17 10 -34 18 -30 20
-30 46 -17 31 17 33 30 9 61 -15 19 -19 20 -36 8z"/>
<path d="M1251 3374 c0 -11 3 -14 6 -6 3 7 2 16 -1 19 -3 4 -6 -2 -5 -13z"/>
<path d="M1238 3327 c-3 -19 -2 -25 4 -19 6 6 8 18 6 28 -3 14 -5 12 -10 -9z"/>
<path d="M1316 2997 c-15 -11 -17 -28 -17 -114 1 -125 24 -244 94 -488 30
-104 60 -223 67 -263 8 -40 17 -75 22 -78 26 -16 -9 185 -71 414 -55 200 -73
308 -75 434 0 60 -1 108 -2 108 0 0 -8 -6 -18 -13z"/>
<path d="M1203 2955 c0 -22 -3 -47 -7 -54 -6 -8 1 -22 18 -39 l26 -27 24 26
25 27 -29 27 c-22 21 -30 24 -36 13 -6 -9 -11 0 -16 27 l-6 40 1 -40z"/>
<path d="M1200 2840 c0 -78 36 -268 90 -465 21 -77 41 -153 45 -169 3 -15 8
-26 11 -24 2 3 -14 75 -36 161 -51 198 -77 322 -85 417 -8 76 -24 131 -25 80z"/>
<path d="M1500 2484 c0 -33 75 -511 82 -519 5 -5 6 4 3 20 -3 17 -21 136 -40
265 -31 200 -45 274 -45 234z"/>
<path d="M1850 1476 c0 -7 8 -24 19 -37 10 -13 16 -29 14 -34 -1 -6 7 -16 18
-23 18 -12 24 -11 36 1 12 12 13 19 3 36 -6 12 -15 19 -20 16 -5 -3 -16 5 -25
19 -19 28 -45 41 -45 22z"/>
<path d="M1990 1431 c0 -5 9 -19 20 -32 15 -19 19 -21 20 -7 0 27 -11 48 -26
48 -8 0 -14 -4 -14 -9z"/>
<path d="M2078 1406 c-25 -18 -23 -31 14 -90 17 -28 31 -63 31 -78 0 -22 3
-25 14 -17 20 18 16 42 -18 87 -31 42 -33 72 -6 72 16 0 43 -28 35 -36 -3 -3
-13 2 -22 11 -13 14 -16 14 -16 2 0 -20 27 -40 45 -33 8 3 15 13 15 23 -1 24
-37 66 -50 58 -5 -3 -10 -1 -10 4 0 14 -11 13 -32 -3z"/>
<path d="M1970 1385 c0 -8 6 -15 13 -15 9 0 8 -3 -2 -9 -8 -5 -10 -14 -6 -22
5 -8 -1 -6 -12 4 -23 20 -33 22 -33 5 0 -6 30 -40 66 -75 46 -45 73 -63 88
-61 49 7 17 86 -63 155 -44 37 -51 40 -51 18z"/>
<path d="M1561 1238 c-170 -459 -214 -785 -126 -920 41 -61 89 -91 156 -96 98
-7 166 45 226 173 27 57 28 67 28 205 0 163 -19 270 -79 447 -33 99 -136 332
-147 333 -3 0 -29 -64 -58 -142z"/>
<path d="M1894 1309 c-11 -18 11 -31 41 -23 26 7 27 8 10 20 -23 17 -41 18
-51 3z"/>
<path d="M1913 1250 c-8 -12 -9 -21 -3 -25 6 -4 8 -11 4 -16 -7 -12 36 -48 59
-49 10 0 20 7 23 15 7 19 -13 45 -34 45 -13 0 -12 -3 3 -20 10 -11 13 -20 8
-20 -17 0 -36 29 -29 45 8 22 19 19 71 -21 35 -26 53 -34 71 -30 31 8 31 24 0
24 -12 0 -47 16 -77 36 -61 41 -79 44 -96 16z"/>
<path d="M1810 1187 c0 -3 24 -44 54 -89 59 -92 76 -138 51 -138 -21 0 -19
-20 7 -47 12 -13 16 -23 10 -23 -20 0 -13 -19 13 -36 24 -16 31 -16 104 0 62
14 83 15 104 5 32 -14 51 -57 45 -104 -5 -40 12 -43 23 -3 10 40 -1 76 -33
108 -28 28 -35 30 -107 30 -46 0 -84 5 -94 13 -24 18 -31 61 -13 76 22 19 51
9 54 -18 3 -18 0 -22 -12 -18 -10 4 -16 1 -16 -9 0 -20 27 -29 45 -14 20 16
19 50 -1 78 -14 20 -23 23 -62 20 l-46 -3 -56 82 c-59 86 -70 101 -70 90z"/>
<path d="M2160 1156 c0 -19 76 -154 100 -176 15 -14 37 -46 50 -70 l22 -45
-23 21 c-13 12 -35 25 -47 29 -22 6 -23 5 -17 -17 5 -12 16 -42 26 -66 17 -38
22 -43 46 -40 28 3 32 13 18 53 -5 16 -5 17 4 4 5 -8 17 -36 26 -61 l15 -46
-35 -35 c-22 -22 -35 -45 -35 -60 0 -36 18 -43 32 -13 6 14 17 26 25 26 9 0
12 8 8 28 -3 15 -2 21 2 12 16 -31 38 -60 45 -60 14 0 8 77 -6 90 -8 6 -20 28
-27 48 -7 20 -29 74 -50 118 -22 45 -39 89 -39 98 0 28 -26 69 -67 107 -48 44
-73 63 -73 55z"/>
<path d="M2076 1128 c-19 -26 -20 -42 -5 -70 l11 -20 14 21 c21 30 41 16 64
-47 28 -73 36 -82 76 -82 39 0 43 9 13 28 -11 7 -32 39 -46 70 -25 58 -77 122
-99 122 -7 0 -20 -10 -28 -22z"/>
<path d="M2061 999 c6 -12 9 -37 6 -55 -6 -35 3 -44 20 -21 21 26 21 46 2 71
-25 32 -44 35 -28 5z"/>
<path d="M2060 839 c-32 -13 -78 -69 -57 -69 10 0 13 -7 10 -21 -5 -19 -4 -19
31 5 38 25 116 44 135 31 6 -3 11 0 11 9 0 18 -60 56 -86 55 -11 0 -30 -5 -44
-10z"/>
<path d="M2282 749 c-36 -18 -96 -79 -77 -79 3 0 1 -9 -6 -21 -10 -19 -8 -20
10 -14 14 4 21 2 21 -7 1 -7 8 1 17 17 8 17 36 51 61 78 50 51 42 59 -26 26z"/>
<path d="M2362 626 c-24 -41 -12 -58 20 -29 20 18 21 18 13 -6 -6 -20 -4 -23
10 -18 9 4 19 7 21 7 14 0 0 40 -20 59 l-23 22 -21 -35z"/>
<path d="M2440 641 c0 -5 8 -18 18 -30 12 -15 21 -18 31 -12 12 8 11 13 -10
30 -26 22 -39 26 -39 12z"/>
<path d="M2442 579 c1 -13 8 -23 13 -21 15 3 12 35 -3 40 -9 3 -13 -3 -10 -19z"/>
<path d="M2146 464 c-3 -9 -6 -24 -6 -35 0 -10 -4 -19 -9 -19 -5 0 -12 -15
-16 -32 -6 -31 -7 -32 -17 -11 -11 24 -45 27 -66 6 -16 -15 -12 -75 5 -80 15
-5 36 34 27 49 -5 8 -10 5 -15 -8 -6 -16 -8 -16 -8 -2 -1 22 19 34 29 18 4 -7
5 -30 3 -51 -7 -48 9 -69 52 -69 36 0 48 10 62 55 11 36 43 47 43 16 0 -12 -4
-21 -10 -21 -5 0 -7 8 -4 18 5 15 4 14 -10 -2 -20 -25 -2 -54 21 -34 51 42 24
117 -31 86 -11 -6 -16 -5 -17 4 -4 32 -6 56 -7 91 -2 38 -15 49 -26 21z"/>
<path d="M1915 330 c-4 -6 -15 -8 -26 -5 -14 5 -21 0 -28 -17 -4 -13 -12 -21
-17 -18 -5 3 -10 -5 -12 -17 -2 -13 12 -43 32 -73 20 -29 36 -56 36 -60 0 -17
-43 -60 -61 -60 -10 0 -19 -4 -19 -10 0 -19 38 -10 69 16 39 32 39 59 4 123
-24 42 -26 51 -14 65 17 20 56 17 56 -4 0 -10 -8 -14 -23 -12 -18 1 -23 -2
-20 -15 2 -11 14 -19 31 -21 21 -3 29 2 39 22 10 22 8 29 -9 49 -11 12 -18 28
-16 35 6 15 -13 16 -22 2z"/>
<path d="M2008 239 c-22 -12 -24 -33 -3 -25 29 11 15 -29 -20 -57 -36 -29 -44
-54 -23 -75 9 -9 4 -20 -22 -47 -30 -31 -31 -35 -14 -35 11 0 31 12 45 26 15
16 31 23 42 20 35 -9 66 12 90 61 15 34 28 48 42 48 30 0 28 49 -2 53 -17 3
-28 -6 -44 -32 -22 -37 -38 -51 -19 -17 20 38 10 44 -22 15 l-32 -29 22 29
c26 34 28 61 6 70 -21 8 -26 7 -46 -5z"/>
<path d="M1786 214 c-4 -10 3 -25 18 -39 14 -13 28 -35 32 -49 7 -29 19 -34
28 -10 17 44 2 76 -51 103 -17 8 -22 8 -27 -5z"/>
<path d="M1986 15 c-19 -14 -18 -15 11 -15 17 0 36 7 43 15 10 13 9 15 -11 15
-13 0 -33 -7 -43 -15z"/>
</g>
</svg>
