<?xml version="1.0" standalone="no"?>
<!DOCTYPE svg PUBLIC "-//W3C//DTD SVG 20010904//EN"
 "http://www.w3.org/TR/2001/REC-SVG-20010904/DTD/svg10.dtd">
<svg version="1.0" xmlns="http://www.w3.org/2000/svg"
 width="94.000000pt" height="94.000000pt" viewBox="0 0 94.000000 94.000000"
 preserveAspectRatio="xMidYMid meet">
<metadata>
Created by potrace 1.14, written by Peter Selinger 2001-2017
</metadata>
<g transform="translate(0.000000,94.000000) scale(0.100000,-0.100000)"
fill="#000000" stroke="none">
<path d="M10 470 l0 -469 186 -1 186 0 -21 26 c-35 44 -36 91 -6 214 1 3 8 21
17 41 31 70 31 72 -23 168 -78 141 -111 235 -103 296 9 72 29 113 76 157 l41
38 -73 0 c-70 0 -76 -2 -110 -32 l-35 -33 29 32 29 32 -96 0 -96 0 -1 -469z
m70 396 c0 -2 -13 -6 -29 -8 -17 -2 -28 -1 -25 4 5 8 54 12 54 4z m30 -73
c-25 -3 -54 -12 -65 -21 -20 -17 -20 -17 -1 6 15 17 28 22 65 20 l46 -1 -45
-4z m262 -437 c7 4 8 2 4 -5 -10 -15 -26 -4 -25 17 1 15 2 15 6 -1 2 -9 9 -14
15 -11z m-285 -212 c-3 -3 -12 -4 -19 -1 -8 3 -5 6 6 6 11 1 17 -2 13 -5z"/>
<path d="M610 931 c18 -5 35 -25 59 -70 28 -53 33 -74 34 -130 0 -56 -6 -79
-39 -151 -22 -47 -56 -114 -76 -150 -31 -54 -36 -73 -34 -112 3 -41 1 -48 -15
-48 -11 0 -19 -4 -19 -10 0 -5 7 -10 15 -10 8 0 15 -7 15 -15 0 -20 15 -19 36
3 17 16 18 16 11 -1 -4 -10 -7 -21 -7 -23 0 -3 -4 -2 -10 1 -13 8 -13 -6 1
-25 8 -11 12 -12 16 -2 7 17 23 15 23 -3 0 -15 -10 -19 -42 -16 -11 2 -18 -5
-18 -15 0 -13 3 -14 14 -5 11 9 15 8 20 -5 4 -10 13 -14 26 -11 17 4 20 0 20
-29 0 -19 -6 -50 -14 -69 l-15 -34 164 0 164 -1 1 470 0 470 -177 -1 c-98 -1
-167 -4 -153 -8z m263 -138 c-7 -2 -21 -2 -30 0 -10 3 -4 5 12 5 17 0 24 -2
18 -5z m-16 -649 c-3 -3 -12 -4 -19 -1 -8 3 -5 6 6 6 11 1 17 -2 13 -5z m10
-96 c-3 -7 -5 -2 -5 12 0 14 2 19 5 13 2 -7 2 -19 0 -25z"/>
<path d="M325 850 c-3 -5 -1 -10 4 -10 6 0 11 5 11 10 0 6 -2 10 -4 10 -3 0
-8 -4 -11 -10z"/>
<path d="M398 828 c-26 -20 -37 -79 -26 -138 9 -51 84 -210 99 -210 4 0 17 26
29 58 13 31 27 62 32 68 4 6 5 14 1 17 -3 4 -2 7 4 7 6 0 9 9 6 20 -3 11 -1
20 5 20 12 0 5 85 -9 112 -25 46 -107 72 -141 46z"/>
<path d="M290 805 c-18 -22 -8 -50 21 -53 34 -4 54 20 39 47 -12 24 -42 27
-60 6z"/>
<path d="M300 720 c0 -5 5 -10 10 -10 6 0 10 5 10 10 0 6 -4 10 -10 10 -5 0
-10 -4 -10 -10z"/>
<path d="M587 631 c-10 -38 -29 -83 -42 -101 -38 -52 -49 -95 -31 -121 14 -20
15 -20 15 -3 -1 10 15 62 34 114 31 85 55 180 45 180 -2 0 -12 -31 -21 -69z"/>
<path d="M470 354 c0 -6 3 -14 8 -18 4 -4 7 -17 7 -28 0 -12 6 -23 13 -26 11
-3 12 0 2 19 l-11 24 19 -24 c13 -16 21 -20 26 -12 4 7 3 18 -4 25 -8 11 -8
15 2 19 7 3 2 4 -12 3 -14 -2 -30 4 -37 13 -7 9 -13 11 -13 5z"/>
<path d="M400 295 c-52 -133 -51 -255 1 -255 67 0 81 109 31 235 l-20 50 -12
-30z"/>
<path d="M485 230 c-8 -13 3 -30 20 -30 8 0 12 -6 9 -14 -4 -10 2 -12 20 -9
31 6 34 19 7 28 -12 4 -18 12 -14 21 6 16 -32 20 -42 4z"/>
<path d="M527 78 c-10 -5 -15 -13 -12 -19 9 -13 -10 -42 -29 -45 -20 -3 -20 0
0 21 11 11 13 20 7 26 -7 7 -16 5 -27 -6 -12 -13 -14 -21 -5 -36 14 -26 67
-22 83 6 6 11 15 23 20 27 17 12 -19 37 -37 26z"/>
<path d="M555 10 c-3 -5 -2 -10 4 -10 5 0 13 5 16 10 3 6 2 10 -4 10 -5 0 -13
-4 -16 -10z"/>
</g>
</svg>
